# xmcd CD database file
#
# Track frame offsets:
#	182
#	17287
#	33655
#	59732
#	74582
#	98810
#	122512
#	153050
#	173612
#	190010
#	216245
#	237607
#	266462
#	281045
#	298462
#	309620
#
# Disc length: 4447 seconds
#
# Revision: 0
# Processed by: cddbd v1.5.2PL0 Copyright (c) Steve Scherf et al.
# Submitted via: CDex 1.51
#
DISCID=ef115d10
DTITLE=Rock Of Ages - Gibson Guitar Greats
DYEAR=1995
DGENRE=Blues
TTITLE0=Piste Audio 01
TTITLE1=Piste Audio 02
TTITLE2=Piste Audio 03
TTITLE3=Piste Audio 04
TTITLE4=Piste Audio 05
TTITLE5=Piste Audio 06
TTITLE6=Piste Audio 07
TTITLE7=Piste Audio 08
TTITLE8=Piste Audio 09
TTITLE9=Piste Audio 10
TTITLE10=Piste Audio 11
TTITLE11=Piste Audio 12
TTITLE12=Piste Audio 13
TTITLE13=Piste Audio 14
TTITLE14=Piste Audio 15
TTITLE15=Piste Audio 16
EXTD=YEAR: 1995
EXTT0=
EXTT1=
EXTT2=
EXTT3=
EXTT4=
EXTT5=
EXTT6=
EXTT7=
EXTT8=
EXTT9=
EXTT10=
EXTT11=
EXTT12=
EXTT13=
EXTT14=
EXTT15=
PLAYORDER=
